<?xml version="1.0" encoding="utf-8"?>
<!-- Generator: Adobe Illustrator 22.1.0, SVG Export Plug-In . SVG Version: 6.00 Build 0)  -->
<svg version="1.1" id="Layer_1" xmlns="http://www.w3.org/2000/svg" xmlns:xlink="http://www.w3.org/1999/xlink" x="0px" y="0px"
	 viewBox="0 0 10000 10000" style="enable-background:new 0 0 10000 10000;" xml:space="preserve">
<style type="text/css">
	.st0{display:none;fill:#B4000F;}
	.st1{display:none;fill:#FDFEFE;}
	.st2{fill:#4557A6;}
	.st3{fill:#4355A5;}
	.st4{fill:#BCDDF4;}
	.st5{fill:#FDFEFE;}
	.st6{fill:#FDFDFE;}
	.st7{fill:#BEDFF5;}
</style>
<rect x="45.6" y="1204.8" class="st0" width="4880.1" height="3949"/>
<g>
	<path class="st1" d="M9971.2,4886.1c0,1312.4-0.2,2624.8,1.1,3937.1c0,40.6-8,48.6-48.6,48.6c-3280.9-1.2-6561.9-1.2-9842.8,0
		c-40.6,0-48.6-8-48.6-48.6c1.2-2676.1,1.2-5352.3,0-8028.4c0-40.6,8-48.6,48.6-48.6c2490.4,1.2,4980.7,1.1,7471.1,1.1
		c19.3,29.1,35.7,60.7,58.3,86.9c77.1,89.6,165,171.2,233.1,267.1c189.5,266.9,398.2,515.6,646.1,730.1
		c77.6,67.2,156.4,133.1,236.2,197.8c13.5,11,34.6,12.7,52.2,18.6c-2.5-16.4-2.9-33.3-7.7-49c-13.9-45.1-31.8-89-44.4-134.4
		c-128-462.3-381.6-817.9-843.7-997.8c-98.7-38.4-196.3-79.5-294.4-119.3c778,0,1556,0.5,2334-1.3c44.7-0.1,50.7,11.6,50.6,52.4
		c-1.2,1279.5-1,2559.1-1,3838.6c-11.1-15.8-22.2-31.7-33.3-47.5c-8.6,20.5-19.5,40.4-25.3,61.7c-6.7,24.5-7,50.6-13.5,75.2
		c-45.6,173.6-140.5,319.4-259.5,450.6c-166.8,184-339.1,363.2-501,551.4c-88.1,102.4-159.6,219.2-238.6,329.4
		c-3.7-4.2-7.4-8.4-11.1-12.7c107-262.9,132.4-532.7,75-811.6c-45.7-221.9-93.4-444-88.8-672.9c0.4-22.1-7.6-44.3-11.8-66.4
		c-31.4,39.9-51,81.6-65.6,125c-94.4,280.5-126.4,572.3-154.4,864.8c-18.6,194.2-31.4,389.4-61,581.9
		c-30.2,196-65.8,392.9-168,568.8c-8.8,15.1-12.5,33.1-23.8,63.9c32.8-17.4,50.7-25.2,66.8-35.7c188.7-122.2,377.7-244,565.4-367.7
		c156.9-103.4,305.4-217,436.5-352.9c231.9-240.4,405.1-512.7,471.4-845.1C9944.6,5027.1,9957.7,4956.5,9971.2,4886.1z M966,2509.3
		c-3.6-3.3-7.2-6.6-10.9-9.9c12.6-41.3,26.5-82.3,37.4-124.1c56-213.1,110.1-426.6,167-639.5c39.8-148.8,105-284.1,218.5-392.6
		c16.8-16,28.4-37.5,42.4-56.4c-24.4,2.3-48.8,4.7-73.2,7.1c-1.9,0.2-3.8,1.1-5.6,2c-251,121.9-445.9,303.4-544.1,566.2
		c-71.2,190.6-95.6,393.7-78.8,599.5c12,147.5,20.4,295.3,27.8,443c3.1,61-1.5,122.4-0.6,183.6c0.2,10.9,10.3,21.7,15.8,32.6
		c8.6-7.2,20.8-12.7,25.4-21.9c98.6-200.7,262.9-341.6,429.6-482.2c129.5-109.2,258.1-220.9,375.1-343.1
		c154.6-161.6,264.4-353,318.4-572.5c5.8-23.5-2.5-50.4-4.2-75.8c-20.7,16-44.1,29.4-61.4,48.4c-37,40.7-66.1,89.7-107,125.6
		c-100.6,88.6-204.8,173.4-309.8,256.8C1258,2191.3,1077.9,2315.5,966,2509.3z M3053.8,7688.3c-23.5-1-47.2-0.9-70.6-3.2
		c-300.1-30.5-599.9-65.6-900.4-91c-331.6-28-640.4-108.7-893.1-341c-16.5-15.2-39.8-22.9-72.3-40.9c8.7,24.2,10.1,32.2,14.1,38.5
		c198.6,307,463.7,536,804.1,671.6c325.5,129.7,662.4,111.6,997,50.7c214.4-39,424.6-101.2,637-152c95-22.7,190.6-42.9,280.4-63
		c-158.7-59.2-320.5-113.5-477-180.4c-80.3-34.3-159-81.8-224.5-139.3c-169.2-148.3-327.9-308.7-496.1-458.2
		c-144.4-128.4-295.8-249-445.1-371.8c-12.1-10-31.8-10.8-48-15.8c2.9,16.2,1.9,34.6,9.4,48.3c107.2,195.1,215,389.8,323.8,584
		c95.8,171,222.7,311.1,404,394.3c52.9,24.2,108.2,43,162.4,64.3C3057.2,7685.1,3055.5,7686.7,3053.8,7688.3z M1147.3,6167.8
		c-16.4-19.2-36.1-36.4-48.7-57.8C989,5922.9,845.8,5763,699.8,5604.4c-153.4-166.5-305.7-334.5-450.2-508.7
		c-84.5-101.9-140.7-222.5-160-357c-3.5-24.1-15.3-47-26.9-80.9c-7.8,20.3-14,29-14.3,38c-9.5,249.9,1.8,497.1,97.5,733
		c122.1,300.8,321.3,546,577.7,736.6c275,204.4,566.7,386.4,851.6,577.5c11.3,7.6,27.9,7.2,42,10.5c-1.9-12.9-2.8-26-6.1-38.5
		c-3-11.3-7.6-22.5-13.3-32.8c-144-260.1-178.1-547.9-212.2-836c-34.3-289.6-67.1-579.4-109.6-867.8
		c-16.2-109.9-56.6-216.4-88.3-323.8c-4.3-14.4-22.1-24.8-33.7-37c-5.8,15.5-14.5,30.7-16.7,46.7c-7.5,54.6-12.1,109.6-18.9,164.3
		c-26,208.9-95.7,410.6-96.2,624c-0.6,245.2-11.7,491,131,709.2C1151.2,6163.7,1149.2,6165.7,1147.3,6167.8z M2023.3,7177.5
		c-8.6-4.5-18.1-8-25.8-13.8c-260.3-196.7-535.1-368.9-835.9-498c-63.1-27.1-122.6-63-182.9-96.4
		c-239.2-132.6-440.8-305-576.1-547.2c-5.6-9.9-14.8-17.8-31.7-37.7c8.2,49.9,13.4,84.8,19.8,119.5c2.9,15.4,6.9,30.8,12.5,45.4
		c232.8,606.3,656.8,1014.8,1279.5,1199c250,74,512,107.5,768.7,158.1c38.3,7.6,77.9,8.4,120.9,12.7c-43-47.4-80.6-84.6-113.4-125.7
		c-151.8-189.9-261.3-402.9-337.8-633c-88.2-265.5-174.7-532.3-324.4-770.9c-79.5-126.7-174.4-243.7-263.5-364.2
		c-12.9-17.5-32.3-30.3-48.7-45.2c-1.2,21.8-2.4,43.6-3.5,65.4c-0.1,1.9,0.4,4,1,5.8c72.6,225.6,108.6,458.2,147,691.8
		c51.2,311.8,146.4,610.8,406.8,823.4C2031.6,7170.4,2027.4,7173.9,2023.3,7177.5z M2436.5,5778.7
		c-229-285.3-381.4-607.8-463.7-964.6c0.8,360.2,76.4,701.9,237.7,1022.4c297.8,592,770.5,995.7,1371.6,1255.9
		c529.3,229.1,1084.6,307.4,1658.6,274c433.4-25.2,851.7-114.4,1244.8-299.2c804-377.9,1348.3-971.7,1521.9-1865.5
		c11.2-57.9,17.2-117,22.7-175.8c5.5-58.5,7.3-117.4,10.7-176.1c-94.2,364.8-260.7,689.1-499.1,977.2
		c-149.4-129.5-300.8-168.8-440.7-40.7c-111.7,102.3-223.3,99.7-344.3,21.6c-150.4-97.2-303.2-110.8-452.9,8.7
		c-48.3,38.6-105.1,43.4-161,13.6c-39.9-21.3-78.4-45.1-117.2-68.3c-80.9-48.3-165-89.3-261.2-56.2c-62.5,21.5-121.3,54-181.7,81.6
		c1.2-19.5,0.3-39.4,4.1-58.4c31.4-155.2,100.2-292.8,198.5-416.3c91.6-137.4,197.2-262,347.5-337.2
		c94.9-47.5,195.6-83.2,293.2-125.7c198.7-86.4,379.7-202.4,540-347.1c121.2-109.4,233-229.3,348.7-344.8
		c102.9-102.7,194.4-215.6,316.9-299.7c145.8-100.1,290.4-205.8,387.7-359.1c67.6-106.6,128.5-217.1,135.4-347.9
		c0.6-17.8,9.1-41.8,0.7-52.5c-77.5-99.4-166.7-185.3-294.6-215.9c-176.4-42.2-352.6-29-528.1,6.2
		c-358.1,71.8-703.1,187.7-1045.8,311.1c-38.2,13.8-68,12.3-96.8-14.1c-159.7-146.5-319.7-292.8-478.4-440.4
		c-24.5-22.8-43.1-56.8-82.7-36.4c-41.8,21.4-29.7,59-20.6,93.8c2,7.6,4,15.3,7,22.5c60.5,147.3,118.3,295.8,182.8,441.3
		c35.6,80.3,48.7,160,14.3,240.1c-63.6,148-130.5,294.6-200.2,439.8c-85.9,179.1-187.7,351.6-261.9,535.3
		c-158,390.9-217.1,800.8-196.2,1222.1c-68.5,3.7-137,7.5-205.5,11.2c-6.7-187.2-0.8-375.9-22.7-561.3
		c-47.3-400-184-771.4-383.8-1121.9c-91.4-160.2-165.5-330.6-241.3-499.1c-40.4-89.9-37.1-183.8,11.1-274
		c25-46.8,47.3-95.3,66.7-144.7c41.7-106.1,83.5-212.3,118.9-320.6c7.6-23.4-3.1-66-21.1-81.6c-29-25.2-54.2,1.7-77,27.7
		c-146.1,167.1-308.9,316.3-487.4,448.6c-30.3,22.5-56.4,23.9-91.6,12.4c-248.6-81.6-496.7-165.3-747.5-239.5
		c-221.5-65.5-446.6-114.5-681-102.6c-184.1,9.4-329.1,87.1-437.8,234.1c-8.7,11.8-6.6,31.6-9.6,47.7
		c30.4,92.8,51.5,190.1,93.3,277.5c79.2,165.9,218,280.6,363.3,387.6c80.7,59.4,164.5,116.4,235.9,185.8
		c172.2,167.3,333.6,345.9,507.4,511.4c174.1,165.7,377.7,289.1,603.7,374.1c169,63.5,331.8,137.5,452,280.1
		c37.8,44.8,76.8,88.6,115.2,132.9c9.8,18.7,20.1,37.1,29.4,56c65.8,135.1,131.3,270.2,196.9,405.4c-14.8-4.7-31.6-6.3-44-14.5
		c-135.1-90.4-260.8-59.5-384,26.1c-22.2,15.4-47.7,27.1-73.1,36.5c-91.5,33.8-167.3-8.3-235.3-59.8c-128.7-97.4-254.7-89.8-381.8-2
		c-118.5,81.8-239.8,86.9-357.8,6.5c-148.6-101.3-293.2-117.1-439.6-0.8C2568.6,5788.5,2504.9,5794.8,2436.5,5778.7z M8088.2,8014.3
		c-2.5-3.7-4.9-7.4-7.4-11.1c-22.7,8.3-46,15.5-68.1,25.2c-81.2,35.3-158.9,83.3-243.5,105.2c-288.6,74.7-581.4,72.7-864.1-18.9
		c-227.8-73.9-445.2-179-669.1-265.5c-321.6-124.3-653.1-163.8-993.1-95.2c-135.9,27.4-269.6,84.8-405.9,4.5
		c-246.3-25.2-493.5-38.3-736.3,19.6c-297.8,71.1-577.4,195.2-857.9,315.4c-214.7,92-438.6,139-673.3,129.2
		c-172-7.2-333.8-52.3-488.4-126.7c-36.1-17.4-73.5-32.2-110.3-48.1c-3.7,5-7.4,10.1-11.1,15.1c12.2,15.9,22.1,34.7,37.1,47.3
		c87.5,73.3,170.6,154,265.7,216.1c422.7,276.4,870.5,310.8,1327.1,99.4c177.5-82.2,340.7-197.1,505.6-304.5
		c142.5-92.7,281.3-190.1,450.7-228.3c72.2-16.3,144.9-33,231,2c-35.6,20.7-61,37.6-88.2,51c-222.1,109.8-429.8,242.1-619.8,400.9
		c-115.1,96.2-225.4,198-337.8,297.4c-35.8,31.6-36.4,60.1,4.3,89.8c41.4,30.2,81.4,62.6,120.1,96.2c40.3,35,69.4,26.6,103.2-12.1
		c70.1-80.3,143-158.1,217.5-234.4c224.6-230.3,478.2-423.5,759-580.4c23.6-13.2,56.9-17.9,84-14.2
		c113.1,15.2,204.1,78.4,294.9,142.1c263.3,184.6,493.3,406.6,720,632.9c96.7,96.5,115.2,94.1,210.3-1
		c98.4-98.5,100.9-107.1-2.5-197.5c-280.1-244.8-578.2-464.2-912.2-631.6c-18.5-9.3-36.1-20.3-55.4-31.2c6.4-6.2,8.7-9.9,12-11.3
		c5.3-2.3,11.2-3.4,17-4.7c152.6-36.1,290.1,8.8,417,87.4c152.4,94.4,299,198.2,450.6,294.2c357.1,226.2,744.7,311.8,1159.6,220.8
		c282.9-62.1,514.6-223.8,719.4-424.6C8064.9,8050,8075.6,8031.2,8088.2,8014.3z M8012,7105.9c156.2-192.8,271.7-400.6,326.6-640.3
		c68.6-298.9,81.7-609.4,188.1-900.5c4.3-11.8-4.9-28.6-7.8-43c-15.4,9.8-36,16-45.4,29.8c-102.3,149.7-209.2,296.7-302.2,452
		c-134.4,224.6-204.3,476.8-286.7,723c-90.3,269.9-208,523.5-416,725.8c-10.1,9.8-16.5,23.5-24.6,35.4c2.9,5.4,5.9,10.7,8.8,16.1
		c53.7-15.1,106.7-33.7,161.2-44.6c175.6-35.1,351.6-67.8,527.7-100.6c321.9-60,598.4-211.6,851.6-414.1
		c325.2-260,549.2-583.6,639.8-993.9c2.9-13.1,2.2-27.1,4.1-54.1c-15.4,19.8-21.7,27-26.9,34.9c-44.2,67.4-82.9,139.2-133.2,201.7
		c-177.9,221.3-408.1,374.1-661.9,495.3c-270.7,129.3-534.5,270.7-768.7,461.2C8037,7097.7,8023.6,7100.7,8012,7105.9z
		 M8900.7,7148.5c-4.2-3.1-8.4-6.3-12.6-9.4c-36.6,32.4-72.1,66.3-110.2,96.8c-59.8,47.9-117.2,100.9-183.1,138.9
		c-204.1,117.7-431.9,154.2-662,180.4c-223.3,25.4-446.4,52.8-669.6,79.1c-49,5.8-98,10.8-147,15.8c-48.5,4.9-97.1,9.3-145.6,13.9
		c12.7-16.9,27.4-21.5,41.3-27.9c145.2-66.8,297.6-126.8,390.8-265.7c85.4-127.2,162.1-260.7,236.8-394.6
		c66.1-118.4,124.4-241.1,185.8-362.1c8.8-17.4,16.2-35.5,24.2-53.3c-4.2-3.2-8.5-6.4-12.7-9.6c-31.2,20-65.7,36.2-92.9,60.6
		c-222,198.9-444.2,397.5-663.1,599.9c-146.7,135.6-293,270.7-470.5,366.1c-126.1,67.8-259,114.4-401.7,132.5
		c-16.3,2.1-30.9,17.5-46.3,26.7c14.6,8.5,28.4,21.9,44,24.6c38.7,6.7,79,4.7,117.2,12.9c232.8,50.1,465.2,102.4,697.8,153.4
		c225,49.3,453.3,74.4,682.3,48.7c392.8-44.1,717.2-227.4,985.9-513.1C8777,7370,8851,7266.9,8900.7,7148.5z M662,4939.4
		c-5.2,0.3-10.5,0.6-15.7,0.9c-6.8-32-15.1-63.8-20.2-96c-30.9-195.3-76.6-385.6-164.3-564.8c-55.4-113.1-108.7-227.9-151.9-345.9
		c-46.5-127-87.5-257-116.9-388.8c-21.5-96.3-20.3-197.7-29.2-296.8c-21.2,16.8-31.6,35.3-35.1,55.1
		c-28.1,158.9-71.4,317.2-79.2,477.2C24.4,4296,186.5,4753.8,509,5156.3c100.9,126,197.6,255.4,296.6,382.9
		c15,19.3,32.3,36.7,48.5,54.9c7.1-25.2,19.1-50.2,20.5-75.7c7.5-136-0.2-274.1,21.4-407.6c25.4-156.4,70.9-310.3,116.1-462.7
		c100.5-339,180.2-681.4,196.6-1036c2.7-59.5,0.4-119.2,0.4-178.8c-6.7-1.2-13.4-2.3-20-3.5c-25.4,39.2-55.4,76.3-75.5,118.1
		c-129.5,269.7-259.3,539.2-383.8,811.2c-54.7,119.5-76.1,247.9-68.6,380.7C665.1,4806.2,662,4872.9,662,4939.4z M9364.2,4782.5
		c-2.8-0.6-5.6-1.2-8.4-1.8c-4-47.2-13-94.5-11.1-141.5c9.2-228.3-89.7-423.6-200.8-608.6c-116.8-194.5-236.2-386.4-323.6-596.5
		c-2.4-5.7-30.8-7.9-31.9-5.5c-7.3,17.7-15.3,37.3-14.6,56c3.4,82.7,3.8,166.1,16,247.7c50.7,339.6,133.7,672,242.5,997.1
		c69.7,208.3,114.6,417.6,97.1,638c-2.8,35.4-3.2,71.1-1.8,106.5c0.6,16.5,8.1,32.7,12.5,49c14.6-10.9,32.7-19.1,43.2-33.1
		c106.6-142.1,213.7-283.7,317-428.2c90.5-126.6,196.2-247.5,260.4-386.9c192.8-418.8,235.9-859.4,137.2-1311.2
		c-14.7-67.2-42.4-131.5-64-197.2c-5.5,1.2-11.1,2.4-16.6,3.6c-3.7,28.7-9.7,57.3-10.6,86c-7.2,228.9-56.7,449.2-138.1,662.1
		c-76.5,200.2-161.7,397.2-236.3,598.1C9400.7,4601.7,9386.4,4693.6,9364.2,4782.5z M9393.6,4258.8c13.9-33.1,25.1-54.1,31.7-76.4
		c75.6-256.3,151.9-512.4,225.2-769.4c62.7-220,57.8-444.7,35.9-669.6c-31.6-324.3-160.8-606.5-371.4-852.8
		c-12.7-14.9-32.8-23.4-49.5-34.9c3.8,22.1,7.6,44.3,11.6,66.4c0.3,1.8,2.1,3.3,3.1,5c59.4,109.3,92.9,225,89.2,350.6
		c-8.4,286.2-16.9,572.3-23.4,858.6c-2.7,121.2-0.5,242.4-0.5,363.7c-14.5-11.4-20.8-23.2-23.5-35.9
		c-30.1-140.7-96.9-263.8-194.8-366.4c-203-212.6-411.1-420.2-617.5-629.4c-5.9-6-16.7-7.1-25.1-10.5c-2.6,8.7-8.6,18-7.2,26
		c8.8,50.3,16.5,101,29.7,150.1c80.5,301.1,244.8,556.8,434.3,799.2c184.3,235.5,348.9,482.4,428.7,776
		C9373.6,4221.9,9381.4,4233.4,9393.6,4258.8z M686.6,1939.4c-4.7-3.3-9.3-6.6-14-9.9c-26.1,28.3-56.8,53.7-77.6,85.4
		c-150,228.1-284.9,460.9-306.1,744.4c-20.5,274.4-11.2,541.8,85.2,804c69.1,187.9,124.1,381,184.4,572.1
		c17.2,54.6,30.9,110.3,49,175.4c12.9-30.3,24.2-49.3,29.4-69.9c57.6-228.1,188.1-417.4,313.5-611.5
		c144.9-224.3,328.7-425.8,417.8-683.9c40.3-116.7,75.7-235.1,110.7-353.5c4.6-15.6-6.7-35.9-10.6-54.1
		c-15.5,10.3-36.3,17.2-45.8,31.5c-81,122.8-200.9,205-308.3,300.3c-145.8,129.4-275,274-361.3,449.6
		c-52.7,107.1-88,222.8-126.4,322.5c0.9-12.2,4.1-39.4,4.6-66.8c3.3-185.1,13.9-370.6,6.6-555.3c-6.5-165-37.2-329-49.2-494
		c-13.7-188.6,1.4-374.5,88.3-548C682.5,1966.1,683.4,1952.2,686.6,1939.4z M8507,1204.8c-2.6,4.1-5.3,8.2-7.9,12.3
		c31.5,34.4,61.3,70.7,95,103c100.3,96,156.2,216,191.7,347.1c37,136.7,71.3,274.2,108,411c26.9,100.2,55.7,199.9,88,315.2
		c-24.6-18.9-38.7-26-47.5-37.2c-121.7-154.1-280-264.5-438.2-376.8c-153.6-109.1-315.8-211.4-411.6-383.8
		c-12.8-23.1-31.3-43-56-76.2c21.5,212.5,85.9,392.6,203.3,550.5c112.4,151.2,248.7,279.3,397.7,395.5
		c216,168.6,437,333.8,575,580.4c3.3,6,10.9,9.6,24.3,21.1c1.9-31.2,4.4-54.1,4.4-76.9c0.5-215.3,4-430.7-0.4-645.9
		c-2.8-135.8,1.8-276.1-30.7-405.9c-80.3-320.2-286.9-546.2-579.3-694.4C8586.8,1225.4,8545.7,1217.5,8507,1204.8z M2372.2,816.9
		c-3.1-6.2-6.1-12.4-9.2-18.6c-56.3,17.2-114.6,29.8-168.6,52.6c-77.9,32.8-151.6,75.3-228.9,109.5
		c-297.8,131.5-505.7,355.4-638.1,645.7c-63.9,140.1-96.2,294.6-141.6,443c-4.5,14.8-0.6,32.2-0.6,48.3c15.6-6.5,33.8-9.7,46.3-19.9
		c76.3-62.5,152.2-125.5,226.6-190.3c146-127.2,285.1-260.4,398.2-419.8c143.6-202.4,279.9-411,461.3-583.9
		C2338.1,863.9,2354,839.3,2372.2,816.9z"/>
	<path class="st2" d="M8899.8,6057.8c79-110.3,150.5-227,238.6-329.5c161.9-188.2,334.2-367.4,501-551.4
		c119-131.2,213.9-277,259.5-450.6c6.5-24.5,6.8-50.7,13.5-75.2c5.8-21.3,16.7-41.2,25.3-61.7c11.1,15.8,22.2,31.7,33.3,47.5
		c0,83,0,166,0,249c-13.5,70.5-26.6,141-40.6,211.4c-66.3,332.3-239.5,604.6-471.4,845.1c-131.1,135.9-279.7,249.6-436.5,352.9
		c-187.7,123.7-376.7,245.4-565.4,367.7c-16.2,10.5-34,18.3-66.8,35.7c11.3-30.8,15-48.8,23.8-63.9c102.2-176,137.8-372.8,168-568.8
		c29.7-192.5,42.4-387.7,61-581.9c28-292.5,59.9-584.3,154.4-864.8c14.6-43.4,34.2-85.1,65.6-125c4.1,22.1,12.2,44.4,11.8,66.4
		c-4.6,228.9,43.1,451,88.8,672.9c57.4,278.9,32,548.6-75,811.6c-3.8,8.1-7.6,16.2-11.4,24.3c-1.9,7.8-3.7,15.6-5.6,23.4
		c4.6-5.5,9.2-11,13.8-16.4C8890.4,6070.3,8895.1,6064,8899.8,6057.8z"/>
	<path class="st2" d="M7587.6,747.3c98.1,39.8,195.8,80.9,294.4,119.3c462.1,179.9,715.6,535.5,843.7,997.8
		c12.6,45.4,30.4,89.3,44.4,134.4c4.8,15.6,5.3,32.6,7.7,49c-17.6-6-38.7-7.7-52.2-18.6c-79.8-64.7-158.6-130.6-236.2-197.8
		c-247.8-214.6-456.5-463.3-646.1-730.1c-68.1-95.8-156-177.4-233.1-267.1c-22.6-26.3-39-57.8-58.3-86.9
		C7563.8,747.3,7575.7,747.3,7587.6,747.3z"/>
	<path class="st3" d="M5154,5703.9c-20.9-421.2,38.2-831.1,196.2-1222.1c74.3-183.7,176-356.1,261.9-535.3
		c69.7-145.2,136.6-291.9,200.2-439.8c34.4-80.1,21.3-159.8-14.3-240.1c-64.5-145.5-122.3-294-182.8-441.3c-3-7.3-5-14.9-7-22.5
		c-9.1-34.8-21.2-72.4,20.6-93.8c39.6-20.3,58.2,13.6,82.7,36.4c158.7,147.6,318.7,293.9,478.4,440.4c28.8,26.4,58.6,27.9,96.8,14.1
		c342.7-123.3,687.8-239.3,1045.8-311.1c175.6-35.2,351.8-48.4,528.1-6.2c128,30.6,217.1,116.5,294.6,215.9
		c8.4,10.8-0.1,34.7-0.7,52.6c-72.7,72-165.7,65.1-256.1,63.9c-112.9-1.5-223.5,0.3-331,46.2c-150.7,64.3-283.4,147.7-367,294.3
		c-58.5,102.6-51.4,155.9,45.7,227.5c51.1,37.7,47.5,63.2,11.9,110.5c-238.4,316.3-538.5,559.1-880.1,754.7
		c-106.9,61.2-154.7,59.7-252.4-17c-63.6-49.9-123.5-105.9-191.8-148.2c-149.4-92.5-286.4-61.5-382.7,84.9
		c-107.7,163.6-137.7,346.9-115.7,538.5c4.9,43.1,25.9,86.6,48.2,124.8c18.6,31.8,48.4,38,74.8-0.1c24.7-35.7,49.1-72.7,79.9-102.8
		c57.5-56.2,117.8-109.9,180.9-159.7c12.9-10.2,45.5-3.8,64,5.3c7.6,3.8,7.9,37.5,0.9,52.8c-18.8,41.1-42.2,80.3-65.9,119
		c-31.7,51.9-53.8,104.8-32.9,166.7c-98.2,123.5-167.1,261.1-198.5,416.3c-3.8,19-2.8,38.9-4.1,58.4c-50,42.9-104.8,76.2-171.7,45.4
		C5324,5792.5,5239.5,5747,5154,5703.9z M7091.6,3349.4c87.5-13.9,176-23.3,262.2-42.9c91.7-20.8,174.1-62.3,234.2-139.9
		c29.3-37.8,30.8-64.9-23.4-68.6c-93.8-6.4-189.2-19.3-281.6-9.1c-105.5,11.5-204.2,53.4-252.8,161.2
		C6996.9,3323.9,7011.7,3344.5,7091.6,3349.4z"/>
	<path class="st3" d="M1944.5,3140.3c2.9-16.1,0.9-35.9,9.6-47.7c108.7-147,253.7-224.7,437.8-234.1c234.4-11.9,459.6,37,681,102.6
		c250.8,74.2,498.9,157.9,747.5,239.5c35.2,11.5,61.3,10.1,91.6-12.4c178.4-132.3,341.3-281.5,487.4-448.6c22.8-26,48-52.9,77-27.7
		c18,15.6,28.7,58.2,21.1,81.6c-35.3,108.3-77.1,214.5-118.9,320.6c-19.4,49.4-41.7,97.9-66.7,144.7c-48.2,90.2-51.5,184-11.1,274
		c75.7,168.6,149.9,338.9,241.3,499.1c199.9,350.5,336.5,721.8,383.8,1121.9c21.9,185.4,16,374.1,22.7,561.3
		c-48.9,27.9-98.3,54.8-146.4,83.9c-83.5,50.6-180.1,37.6-250.4-35.3c-3.8-4.3-7.6-8.6-11.4-12.9l1.4,0.2
		c-65.6-135.1-131.2-270.3-196.9-405.4c-9.2-18.9-19.6-37.4-29.4-56c-4.3-38.4-1-79.9-14.8-114.6c-20.2-50.8-54.9-95.7-78.6-145.4
		c-7.6-15.9-6.9-50.9,2.4-56.5c16.6-9.9,45-10.5,64.2-3.4c25.1,9.2,49.7,26.2,68.1,45.9c61.8,66.2,121.6,134.2,180.3,203.1
		c42.5,49.9,68.5,49.4,100.6-7.9c9.5-17,19.9-36,21.1-54.6c5.4-87.9,17.5-177,8.9-263.9c-13.8-138.9-56-270.9-155.5-376.1
		c-86.4-91.3-189-111.3-300.6-55c-48.9,24.6-93.6,58.3-137.8,91c-46,34-87.5,74-133.9,107.4c-56.2,40.3-117.2,43.1-178.2,8.7
		C3405,4467.6,3089.6,4219,2843.1,3888c-33.3-44.8-34.8-65.1,10.7-100.4c105.9-82.4,114.7-133.8,40.4-246.9
		c-133.8-204-331.2-302.8-569.4-324.6c-70.5-6.4-142.2,0-213.2-2.2C2046.8,3211.7,1986.6,3195.6,1944.5,3140.3z M3004.9,3354.7
		c94.3-9.6,113-31.3,64.5-109.6c-31-50.2-82.4-96.9-135.6-122.4c-130.9-62.8-270.3-55.6-409.5-21.4c-39.1,9.6-40.6,30.1-16.2,50.4
		c56.5,47,110.9,105.5,177,129.8C2787,3318.9,2897.9,3331.6,3004.9,3354.7z"/>
	<path class="st2" d="M7541.6,5827c238.4-288.1,404.9-612.4,499.1-977.2c-3.4,58.7-5.3,117.6-10.7,176.1
		c-5.5,58.8-11.5,117.9-22.7,175.8c-173.5,893.8-717.9,1487.6-1521.9,1865.5c-393.1,184.8-811.4,274-1244.8,299.2
		c-574,33.4-1129.2-44.9-1658.6-274c-601.1-260.1-1073.7-663.9-1371.6-1255.9c-161.2-320.5-236.9-662.2-237.7-1022.4
		c82.3,356.8,234.6,679.3,463.7,964.6c64.9,73.8,129.7,147.5,194.6,221.3c150.6,161.6,321.2,298.9,507.6,416.8
		c8,4.5,15.9,9,23.9,13.4c0,0-0.3-0.3-0.3-0.3c66,39.3,132,78.5,198,117.8c2.7,2.7,5,6.3,8.3,8.1
		c470.6,252.9,975.1,384.6,1506.5,417.2c273.3,16.8,543.1-17.1,810.2-71.6c343.1-70,670.9-183.7,977.1-355.8
		c47.6-27.3,95.3-54.5,142.9-81.8c213-130.1,408.2-282.7,580.7-463.5C7437.9,5942.6,7489.8,5884.8,7541.6,5827z"/>
	<path class="st2" d="M8088.2,8014.3c-12.6,16.9-23.3,35.8-38.2,50.4c-204.8,200.7-436.5,362.5-719.4,424.6
		c-414.9,91.1-802.6,5.4-1159.6-220.8c-151.5-96-298.1-199.8-450.6-294.2c-126.9-78.6-264.4-123.5-417-87.4
		c-5.7,1.4-11.6,2.4-17,4.7c-3.3,1.4-5.6,5.1-12,11.3c19.4,11,36.9,22,55.4,31.2c334,167.3,632.1,386.7,912.2,631.6
		c103.4,90.4,101,99,2.5,197.5c-95.1,95.2-113.6,97.5-210.3,1c-226.7-226.2-456.8-448.2-720-632.9c-90.8-63.7-181.8-127-294.9-142.1
		c-27.1-3.6-60.4,1-84,14.2c-280.7,156.9-534.3,350-759,580.4c-74.4,76.3-147.4,154.2-217.5,234.4c-33.8,38.8-62.9,47.1-103.2,12.1
		c-38.7-33.6-78.7-66-120.1-96.2c-40.7-29.6-40.1-58.2-4.3-89.8c112.4-99.4,222.7-201.2,337.8-297.4
		c190-158.8,397.7-291.1,619.8-400.9c27.1-13.4,52.6-30.3,88.2-51c-86.1-35-158.8-18.3-231-2c-169.4,38.1-308.2,135.6-450.7,228.3
		c-165,107.3-328.1,222.2-505.6,304.5c-456.6,211.4-904.3,177-1327.1-99.4c-95-62.1-178.1-142.8-265.7-216.1
		c-15-12.6-24.9-31.4-37.1-47.3c3.7-5,7.4-10.1,11.1-15.1c36.8,16,74.2,30.8,110.3,48.1c154.5,74.4,316.4,119.4,488.4,126.7
		c234.7,9.9,458.6-37.2,673.3-129.2c280.5-120.2,560.1-244.3,857.9-315.4c242.7-57.9,490-44.8,736.3-19.6
		c136.3,80.4,269.9,23,405.9-4.5c340-68.7,671.5-29.1,993.1,95.2c223.9,86.5,441.3,191.6,669.1,265.5
		c282.7,91.7,575.4,93.6,864.1,18.9c84.6-21.9,162.3-69.8,243.5-105.2c22.2-9.6,45.4-16.9,68.1-25.2
		C8083.3,8006.8,8085.7,8010.6,8088.2,8014.3z"/>
	<path class="st4" d="M2631.1,6000c-64.9-73.8-129.7-147.5-194.6-221.3c68.4,16,132.1,9.8,189.4-35.8
		c146.5-116.3,291.1-100.5,439.6,0.8c117.9,80.4,239.3,75.3,357.8-6.5c127.1-87.7,253.1-95.4,381.8,2
		c68.1,51.5,143.8,93.7,235.3,59.8c25.4-9.4,50.9-21.1,73.1-36.5c123.2-85.6,248.9-116.6,384-26.1c12.4,8.3,29.2,9.9,44,14.5
		c0,0-1.4-0.2-1.4-0.2c3.8,4.3,7.6,8.6,11.4,12.9c70.3,72.9,167,85.9,250.4,35.3c48.1-29.2,97.6-56,146.4-83.9
		c68.5-3.7,137-7.5,205.5-11.2c85.5,43.2,170,88.7,257,128.7c67,30.9,121.8-2.4,171.7-45.4c60.4-27.6,119.2-60.1,181.7-81.6
		c96.2-33.1,180.3,7.9,261.2,56.2c38.8,23.2,77.3,47,117.2,68.3c55.9,29.8,112.7,25,161-13.6c149.7-119.5,302.5-105.9,452.9-8.7
		c121,78.1,232.6,80.7,344.3-21.6c139.9-128.1,291.3-88.7,440.7,40.7c-51.8,57.8-103.7,115.6-155.6,173.4
		c-10.7-7.7-20.2-18.6-32.1-22.5c-101.9-33.5-184.5,6.9-259.6,71.4c-104.5,89.7-200,98.3-316.7,27.8
		c-146.9-88.7-298.5-135.7-450-17.3c-84,65.6-158.1,53-238.2,2.1c-44.9-28.5-88.9-59.4-136.8-81.7
		c-132.5-61.8-255.4-18.7-359.5,61.1c-98.4,75.5-184.1,63.1-275.9,3.3c-173.5-112.8-343.3-103.6-514.3,7.4
		c-29.4,19.1-72.4,35.5-104,28.9c-59.8-12.6-122.1-33.6-172.3-67.5c-172.2-116.4-279.3-75.8-420.2,10.6
		c-30.3,18.6-67.4,29.2-102.8,35.7c-84.3,15.3-151.8-25.5-218.1-71.2c-127-87.5-214.7-89.9-341.2-3
		c-136.5,93.7-270.6,96.3-405.7,2.4C2899,5890.8,2763.9,5895.4,2631.1,6000z"/>
	<path class="st4" d="M5785.2,5312.6c-20.9-61.9,1.2-114.9,32.9-166.7c23.7-38.7,47.1-77.9,65.9-119c7-15.3,6.7-49-0.9-52.8
		c-18.4-9.1-51.1-15.5-64-5.3c-63.1,49.8-123.4,103.5-180.9,159.7c-30.8,30.1-55.2,67.1-79.9,102.8c-26.4,38.1-56.2,31.9-74.8,0.1
		c-22.3-38.2-43.3-81.7-48.2-124.8c-21.9-191.6,8-374.9,115.7-538.5c96.3-146.3,233.3-177.4,382.7-84.9
		c68.3,42.3,128.2,98.3,191.8,148.2c97.7,76.7,145.5,78.2,252.4,17c341.5-195.6,641.7-438.4,880.1-754.7
		c35.6-47.3,39.3-72.8-11.9-110.5c-97.1-71.6-104.2-124.9-45.7-227.5c83.6-146.6,216.3-230,367-294.3c107.5-45.9,218-47.7,331-46.2
		c90.4,1.2,183.4,8.1,256.1-63.9c-7,130.8-67.8,241.3-135.4,347.9c-97.3,153.3-241.9,259-387.7,359.1
		c-122.5,84.1-214,197-316.9,299.7c-115.7,115.5-227.5,235.4-348.7,344.8c-160.3,144.7-341.3,260.6-540,347.1
		c-97.5,42.4-198.3,78.2-293.2,125.7C5982.4,5050.6,5876.8,5175.1,5785.2,5312.6z"/>
	<path class="st4" d="M1944.5,3140.3c42.2,55.3,102.3,71.4,167.1,73.5c71,2.3,142.7-4.2,213.2,2.2
		c238.2,21.8,435.6,120.6,569.4,324.6c74.2,113.2,65.5,164.5-40.4,246.9c-45.4,35.4-44,55.7-10.7,100.4
		c246.5,331,561.9,579.6,918.3,780.5c61,34.4,122,31.6,178.2-8.7c46.4-33.3,87.9-73.4,133.9-107.4c44.3-32.7,88.9-66.4,137.8-91
		c111.7-56.2,214.2-36.3,300.6,55c99.5,105.1,141.7,237.2,155.5,376.1c8.6,86.9-3.5,176-8.9,263.9c-1.1,18.6-11.6,37.7-21.1,54.6
		c-32.1,57.2-58.1,57.8-100.6,7.9c-58.7-68.9-118.6-137-180.3-203.1c-18.4-19.7-43-36.7-68.1-45.9c-19.2-7.1-47.5-6.5-64.2,3.4
		c-9.3,5.5-9.9,40.5-2.4,56.5c23.7,49.7,58.4,94.6,78.6,145.4c13.8,34.7,10.5,76.2,14.8,114.6c-38.4-44.3-77.4-88.1-115.2-132.9
		c-120.3-142.6-283.1-216.5-452-280.1c-226-85-429.5-208.3-603.7-374.1c-173.9-165.5-335.3-344-507.4-511.4
		c-71.4-69.4-155.3-126.5-235.9-185.8c-145.4-107-284.1-221.7-363.3-387.6C1996,3330.4,1974.9,3233.1,1944.5,3140.3z"/>
	<path class="st2" d="M8012,7105.9c11.6-5.2,24.9-8.2,34.4-15.9c234.2-190.5,498-331.8,768.7-461.2
		c253.8-121.3,484-274.1,661.9-495.3c50.3-62.5,89-134.3,133.2-201.7c5.2-7.9,11.5-15,26.9-34.9c-1.9,27-1.2,41-4.1,54.1
		c-90.5,410.2-314.6,733.8-639.8,993.9c-253.2,202.5-529.7,354-851.6,414.1c-176,32.8-352.1,65.5-527.7,100.6
		c-54.5,10.9-107.5,29.5-161.2,44.6c-2.9-5.4-5.9-10.7-8.8-16.1c8.1-11.9,14.5-25.5,24.6-35.4c208.1-202.2,325.7-455.8,416-725.8
		c82.4-246.2,152.3-498.4,286.7-723c93-155.3,199.9-302.3,302.2-452c9.4-13.8,30-20.1,45.4-29.8c2.9,14.5,12.2,31.2,7.8,43
		c-106.4,291.1-119.5,601.6-188.1,900.5C8283.7,6705.3,8168.2,6913.1,8012,7105.9z"/>
	<path class="st2" d="M2035.8,7166.8c-260.4-212.6-355.6-511.6-406.8-823.4c-38.4-233.6-74.4-466.1-147-691.8
		c-0.6-1.9-1.1-3.9-1-5.8c1.1-21.8,2.3-43.6,3.5-65.4c16.4,15,35.8,27.7,48.7,45.2c89.1,120.5,184,237.5,263.5,364.2
		c149.7,238.6,236.2,505.4,324.4,770.9c76.4,230.1,186,443.1,337.8,633c32.8,41.1,70.4,78.3,113.4,125.7
		c-43-4.3-82.6-5.2-120.9-12.7c-256.8-50.7-518.8-84.2-768.7-158.1C1060,7164.2,636,6755.8,403.2,6149.4c-5.6-14.6-9.7-30-12.5-45.4
		c-6.4-34.7-11.7-69.6-19.8-119.5c16.9,19.9,26.2,27.8,31.7,37.7c135.4,242.2,336.9,414.6,576.1,547.2
		c60.3,33.4,119.8,69.3,182.9,96.4c300.8,129.1,575.6,301.2,835.9,498c7.7,5.8,17.1,9.3,25.8,13.8c6.8,5.3,13.6,10.6,20.4,15.8
		c6,0.4,11.9,0.7,17.9,1.1c-3.1-3.6-6.1-7.1-9.2-10.7C2046.9,7178.1,2041.4,7172.4,2035.8,7166.8z"/>
	<path class="st2" d="M1153.3,6161.7c-142.7-218.2-131.6-464-131-709.2c0.5-213.4,70.1-415.1,96.2-624
		c6.8-54.7,11.4-109.7,18.9-164.3c2.2-16,11-31.2,16.7-46.7c11.6,12.2,29.4,22.6,33.7,37c31.7,107.4,72.1,213.9,88.3,323.8
		c42.5,288.4,75.3,578.3,109.6,867.8c34.2,288.1,68.2,575.9,212.2,836c5.7,10.3,10.3,21.5,13.3,32.8c3.3,12.5,4.2,25.6,6.1,38.5
		c-14.1-3.3-30.7-3-42-10.5c-284.9-191-576.6-373-851.6-577.5c-256.4-190.6-455.7-435.9-577.7-736.6c-95.7-235.9-107-483.1-97.5-733
		c0.3-9,6.5-17.7,14.3-38c11.5,33.9,23.4,56.8,26.9,80.9c19.4,134.5,75.5,255.1,160,357c144.5,174.2,296.8,342.2,450.2,508.7
		c146,158.5,289.3,318.5,398.8,505.6c12.5,21.4,32.3,38.7,48.7,57.8c3.2,2.5,6.4,5.1,9.7,7.6
		C1155.7,6170.8,1154.5,6166.2,1153.3,6161.7z"/>
	<path class="st2" d="M8900.7,7148.5c-49.7,118.4-123.6,221.6-211.3,314.8c-268.7,285.7-593.2,469-985.9,513.1
		c-229,25.7-457.2,0.7-682.3-48.7c-232.6-51-465-103.3-697.8-153.4c-38.2-8.2-78.5-6.2-117.2-12.9c-15.6-2.7-29.4-16.1-44-24.6
		c15.4-9.2,30-24.6,46.3-26.7c142.7-18.1,275.6-64.7,401.7-132.5c177.5-95.5,323.8-230.5,470.5-366.1
		c218.8-202.3,441.1-401,663.1-599.9c27.2-24.4,61.8-40.6,92.9-60.6c4.2,3.2,8.5,6.4,12.7,9.6c-8,17.8-15.3,35.9-24.2,53.3
		c-61.5,121-119.7,243.7-185.8,362.1c-74.8,133.9-151.4,267.4-236.8,394.6c-93.2,138.8-245.6,198.9-390.8,265.7
		c-13.9,6.4-28.5,11.1-41.3,27.9c48.6-4.6,97.1-9,145.6-13.9c49-5,98.1-10,147-15.8c223.2-26.3,446.3-53.7,669.6-79.1
		c230.1-26.2,457.9-62.7,662-180.4c65.9-38,123.3-91,183.1-138.9c38.1-30.5,73.5-64.4,110.2-96.8
		C8892.3,7142.2,8896.5,7145.3,8900.7,7148.5z"/>
	<path class="st2" d="M3058.9,7683.5c-54.2-21.3-109.5-40.1-162.4-64.3c-181.4-83.1-308.3-223.2-404-394.3
		c-108.8-194.2-216.6-388.9-323.8-584c-7.5-13.7-6.5-32.1-9.4-48.3c16.2,5.1,35.9,5.8,48,15.8c149.3,122.8,300.7,243.4,445.1,371.8
		c168.2,149.6,326.9,309.9,496.1,458.2c65.5,57.4,144.2,105,224.5,139.3c156.5,66.9,318.3,121.2,477,180.4
		c-89.8,20.1-185.4,40.3-280.4,63c-212.3,50.8-422.6,112.9-637,152c-334.6,60.9-671.6,79-997-50.7
		c-340.4-135.6-605.5-364.6-804.1-671.6c-4.1-6.3-5.4-14.3-14.1-38.5c32.5,18,55.8,25.8,72.3,40.9
		c252.7,232.3,561.5,312.9,893.1,341c300.6,25.4,600.3,60.5,900.4,91c23.4,2.4,47,2.2,70.6,3.2c3.7,0.4,7.4,0.8,11.1,1.3
		C3062.9,7687.5,3060.9,7685.5,3058.9,7683.5z"/>
	<path class="st2" d="M662,4939.4c0-66.5,3.1-133.2-0.7-199.5c-7.5-132.8,13.9-261.2,68.6-380.7c124.4-272,254.3-541.6,383.8-811.2
		c20.1-41.8,50.1-78.9,75.5-118.1c6.7,1.2,13.4,2.3,20,3.5c0,59.6,2.4,119.3-0.4,178.8c-16.4,354.6-96.1,697.1-196.6,1036
		c-45.2,152.5-90.7,306.3-116.1,462.7c-21.7,133.5-13.9,271.7-21.4,407.6c-1.4,25.5-13.4,50.5-20.5,75.7
		c-16.2-18.3-33.6-35.7-48.5-54.9c-99.1-127.5-195.7-256.9-296.6-382.9C186.5,4753.8,24.4,4296,49.6,3780.1
		c7.8-160,51-318.3,79.2-477.2c3.5-19.8,14-38.3,35.1-55.1c8.9,99.1,7.7,200.5,29.2,296.8c29.4,131.8,70.4,261.8,116.9,388.8
		c43.2,118.1,96.5,232.9,151.9,345.9c87.7,179.2,133.5,369.6,164.3,564.8c5.1,32.3,13.4,64,20.2,96
		C651.5,4940,656.8,4939.7,662,4939.4z"/>
	<path class="st2" d="M9364.2,4782.5c22.2-89,36.5-180.9,68.2-266.3c74.5-200.9,159.7-397.9,236.3-598.1
		c81.4-212.9,130.9-433.3,138.1-662.1c0.9-28.8,6.9-57.3,10.6-86c5.5-1.2,11.1-2.4,16.6-3.6c21.7,65.7,49.3,130,64,197.2
		c98.7,451.8,55.7,892.3-137.2,1311.2c-64.2,139.4-169.9,260.3-260.4,386.9c-103.3,144.4-210.4,286.1-317,428.2
		c-10.5,14-28.6,22.2-43.2,33.1c-4.4-16.3-11.9-32.5-12.5-49c-1.4-35.4-1-71.2,1.8-106.5c17.6-220.4-27.3-429.7-97.1-638
		c-108.8-325.1-191.8-657.6-242.5-997.1c-12.2-81.6-12.6-165-16-247.7c-0.8-18.6,7.2-38.2,14.6-56c1-2.5,29.5-0.2,31.9,5.5
		c87.4,210.1,206.8,402,323.6,596.5c111.1,185,210,380.3,200.8,608.6c-1.9,46.9,7.1,94.3,11.1,141.5
		C9358.6,4781.3,9361.4,4781.9,9364.2,4782.5z"/>
	<path class="st2" d="M9393.6,4258.8c-12.2-25.4-20-36.9-23.5-49.6c-79.8-293.5-244.5-540.4-428.7-776
		c-189.6-242.3-353.8-498-434.3-799.2c-13.2-49.2-20.9-99.9-29.7-150.1c-1.4-8,4.6-17.3,7.2-26c8.5,3.4,19.3,4.5,25.1,10.5
		c206.4,209.2,414.6,416.9,617.5,629.4c97.9,102.5,164.8,225.6,194.8,366.4c2.7,12.7,9,24.5,23.5,35.9c0-121.2-2.3-242.5,0.5-363.7
		c6.5-286.2,15-572.4,23.4-858.6c3.7-125.6-29.9-241.3-89.2-350.6c-0.9-1.7-2.7-3.2-3.1-5c-4-22.1-7.8-44.3-11.6-66.4
		c16.7,11.5,36.8,20,49.5,34.9c210.7,246.3,339.8,528.5,371.4,852.8c21.9,224.9,26.8,449.5-35.9,669.6
		c-73.2,257-149.6,513.1-225.2,769.4C9418.7,4204.7,9407.5,4225.7,9393.6,4258.8z"/>
	<path class="st2" d="M686.6,1939.4c-3.2,12.8-4.1,26.7-9.8,38.2c-86.9,173.5-102,359.4-88.3,548c12,165,42.7,328.9,49.2,494
		c7.2,184.7-3.3,370.2-6.6,555.3c-0.5,27.3-3.7,54.6-4.6,66.8c38.4-99.6,73.7-215.3,126.4-322.5c86.4-175.6,215.5-320.2,361.3-449.6
		c107.4-95.3,227.3-177.5,308.3-300.3c9.5-14.3,30.2-21.2,45.8-31.5c3.9,18.1,15.2,38.5,10.6,54.1c-35,118.4-70.4,236.8-110.7,353.5
		c-89.1,258.1-272.9,459.6-417.8,683.9c-125.4,194.1-255.9,383.4-313.5,611.5c-5.2,20.6-16.4,39.6-29.4,69.9
		c-18.1-65.1-31.8-120.8-49-175.4c-60.3-191.1-115.3-384.2-184.4-572.1c-96.4-262.2-105.7-529.6-85.2-804
		c21.2-283.5,156.1-516.3,306.1-744.4c20.9-31.8,51.5-57.1,77.6-85.4C677.3,1932.8,682,1936.1,686.6,1939.4z"/>
	<path class="st2" d="M8507,1204.8c38.7,12.7,79.8,20.6,115.7,38.8c292.4,148.2,499.1,374.2,579.3,694.4
		c32.5,129.8,28,270.2,30.7,405.9c4.4,215.2,0.9,430.6,0.4,645.9c-0.1,22.9-2.6,45.8-4.4,76.9c-13.4-11.4-20.9-15.1-24.3-21.1
		c-138-246.6-358.9-411.8-575-580.4c-149-116.2-285.3-244.2-397.7-395.5c-117.4-157.9-181.8-337.9-203.3-550.5
		c24.7,33.3,43.2,53.2,56,76.2c95.8,172.4,258,274.7,411.6,383.8c158.1,112.3,316.4,222.7,438.2,376.8c8.8,11.2,22.9,18.2,47.5,37.2
		c-32.3-115.3-61.1-215-88-315.2c-36.7-136.8-71-274.3-108-411c-35.5-131.1-91.5-251.1-191.7-347.1c-33.7-32.2-63.4-68.5-95-103
		C8501.8,1213,8504.4,1208.9,8507,1204.8z"/>
	<path class="st2" d="M966,2509.3c112-193.9,292.1-318,461.9-453c105-83.5,209.2-168.2,309.8-256.8c40.8-36,69.9-84.9,107-125.6
		c17.3-19,40.8-32.4,61.4-48.4c1.7,25.3,10,52.3,4.2,75.8c-54,219.5-163.8,410.9-318.4,572.5c-116.9,122.2-245.6,233.9-375.1,343.1
		c-166.7,140.6-331,281.5-429.6,482.2c-4.5,9.2-16.7,14.7-25.4,21.9c-5.5-10.9-15.7-21.6-15.8-32.6c-0.9-61.2,3.6-122.6,0.6-183.6
		c-7.4-147.8-15.8-295.6-27.8-443c-16.7-205.9,7.7-408.9,78.8-599.5c98.1-262.8,293.1-444.3,544.1-566.2c1.8-0.9,3.7-1.8,5.6-2
		c24.4-2.4,48.8-4.8,73.2-7.1c-14,18.9-25.6,40.4-42.4,56.4c-113.5,108.4-178.8,243.8-218.5,392.6
		c-56.9,212.8-111.1,426.4-167,639.5c-11,41.8-24.9,82.7-37.4,124.1c-3.4,11.4-6.8,22.8-10.2,34.2c2.6,1,5.3,2,7.9,2.9
		C957.2,2527.5,961.6,2518.4,966,2509.3z"/>
	<path class="st2" d="M2372.2,816.9c-18.1,22.3-34.1,46.9-54.7,66.6c-181.4,172.9-317.7,381.5-461.3,583.9
		C1743.1,1626.8,1604,1760,1458,1887.2c-74.4,64.8-150.3,127.8-226.6,190.3c-12.5,10.2-30.7,13.4-46.3,19.9
		c0-16.2-3.9-33.5,0.6-48.3c45.4-148.4,77.7-302.9,141.6-443c132.4-290.3,340.3-514.1,638.1-645.7c77.4-34.2,151.1-76.7,228.9-109.5
		c54-22.7,112.2-35.4,168.6-52.6C2366.1,804.5,2369.1,810.7,2372.2,816.9z"/>
	<path class="st5" d="M8877.4,6069.5c3.8-8.1,7.6-16.2,11.4-24.3c3.7,4.2,7.4,8.4,11.1,12.7c-4.7,6.2-9.5,12.4-14.2,18.7
		C8882.9,6074.2,8880.1,6071.8,8877.4,6069.5z"/>
	<path class="st5" d="M8885.7,6076.5c-4.6,5.5-9.2,11-13.8,16.4c1.9-7.8,3.7-15.6,5.6-23.4
		C8880.1,6071.8,8882.9,6074.2,8885.7,6076.5z"/>
	<path class="st4" d="M7091.6,3349.4c-79.9-4.9-94.6-25.5-61.4-99.2c48.6-107.8,147.3-149.7,252.8-161.2
		c92.5-10.1,187.8,2.8,281.6,9.1c54.2,3.7,52.7,30.7,23.4,68.6c-60.1,77.6-142.5,119.1-234.2,139.9
		C7267.6,3326.1,7179.1,3335.5,7091.6,3349.4z"/>
	<path class="st4" d="M3004.9,3354.7c-107-23.2-217.9-35.9-319.7-73.3c-66.1-24.3-120.5-82.8-177-129.8
		c-24.4-20.3-22.9-40.8,16.2-50.4c139.1-34.2,278.6-41.4,409.5,21.4c53.2,25.5,104.6,72.2,135.6,122.4
		C3117.9,3323.5,3099.2,3345.1,3004.9,3354.7z"/>
	<path class="st5" d="M4551.5,5763.7c-3.8-4.3-7.6-8.6-11.4-12.9C4544,5755.1,4547.8,5759.4,4551.5,5763.7z"/>
	<path class="st5" d="M2631.1,6000c132.8-104.7,267.9-109.3,407.5-12.3c135.1,93.9,269.2,91.2,405.7-2.4
		c126.5-86.9,214.2-84.5,341.2,3c66.4,45.7,133.8,86.5,218.1,71.2c35.4-6.4,72.5-17.1,102.8-35.7c140.9-86.4,248-127,420.2-10.6
		c50.2,33.9,112.5,54.9,172.3,67.5c31.6,6.7,74.6-9.8,104-28.9c171-110.9,340.8-120.2,514.3-7.4c91.9,59.7,177.5,72.2,275.9-3.3
		c104-79.8,227-122.9,359.5-61.1c47.9,22.3,91.9,53.3,136.8,81.7c80.2,50.9,154.3,63.5,238.2-2.1c151.6-118.4,303.1-71.4,450,17.3
		c116.7,70.5,212.2,61.9,316.7-27.8c75.1-64.5,157.7-104.9,259.6-71.4c11.9,3.9,21.5,14.9,32.1,22.5
		c-172.5,180.9-367.7,333.4-580.7,463.5c-12.1-6.6-24.7-12.5-36.2-20c-156.9-102-312.1-121.3-468.5,3
		c-46.6,37-101.9,40.4-156.1,12.5c-33.2-17.1-67.6-33.4-97.5-55.5c-140.8-104.3-290.9-112.8-426.1-8.2c-115.9,89.7-213,81-325.7,7.6
		c-167.4-109.1-331.3-80.1-494.7,17.4c-37.2,22.2-90.5,33.2-133,26.8c-48.2-7.3-97.2-33.5-137.7-62.8
		c-138.6-100.4-272.8-95.8-409.2,2c-23.6,16.9-50.6,30.2-77.8,40.4c-93.6,35.2-170.4-9.4-240.8-61c-112.8-82.7-228.8-98.2-345-18.2
		c-90.8,62.4-187.6,86.6-294.8,82c0,0,0.3,0.3,0.3,0.3c-8-4.5-15.9-8.9-23.9-13.4C2952.2,6298.9,2781.7,6161.7,2631.1,6000z"/>
	<path class="st6" d="M6662.5,6545.7c-306.2,172.1-634,285.8-977.1,355.8c-267.1,54.5-536.9,88.4-810.2,71.6
		c-531.4-32.6-1035.9-164.3-1506.5-417.2c-3.3-1.8-5.6-5.4-8.3-8.1c12.5-5.2,26.9-7.9,37.3-15.8c140.6-108,281.1-126.3,422.8-2.4
		c2.9,2.5,6.9,3.7,10.3,5.8c99.9,61.4,194.8,65.4,297.3-3.9c53-35.8,121.5-53.3,185.6-67c88.5-19,158.8,32.8,228.1,78.7
		c93.7,62.1,184.6,85.6,289.1,14.2c90.7-61.9,197.1-96.1,307.6-68.1c71.3,18.1,140.2,52,205,88.1c81.8,45.5,154.4,56.9,234.4-5.6
		c45.7-35.7,100.5-63.7,155.5-82.8c113.9-39.7,216.8-5.3,311,63.2c100,72.7,193.7,100.9,308.1,11.2
		C6442.5,6492.6,6555.1,6481.6,6662.5,6545.7z"/>
	<path class="st7" d="M6662.5,6545.7c-107.4-64.1-219.9-53.1-310.1,17.6c-114.3,89.7-208.1,61.5-308.1-11.2
		c-94.1-68.5-197.1-102.9-311-63.2c-55,19.2-109.8,47.1-155.5,82.8c-80,62.4-152.6,51-234.4,5.6c-64.8-36.1-133.7-70-205-88.1
		c-110.5-28-216.9,6.1-307.6,68.1c-104.6,71.4-195.4,47.8-289.1-14.2c-69.3-45.9-139.6-97.6-228.1-78.7
		c-64.1,13.7-132.6,31.2-185.6,67c-102.5,69.3-197.4,65.3-297.3,3.9c-3.4-2.1-7.4-3.2-10.3-5.8c-141.7-123.9-282.2-105.6-422.8,2.4
		c-10.4,8-24.8,10.7-37.3,15.8c-66-39.3-132-78.5-198-117.8c107.1,4.6,204-19.6,294.8-82c116.2-79.9,232.2-64.4,345,18.2
		c70.4,51.6,147.2,96.2,240.8,61c27.2-10.2,54.3-23.5,77.8-40.4c136.4-97.8,270.7-102.4,409.2-2c40.5,29.3,89.5,55.5,137.7,62.8
		c42.5,6.4,95.8-4.6,133-26.8c163.4-97.6,327.3-126.6,494.7-17.4c112.7,73.5,209.8,82.2,325.7-7.6c135.2-104.6,285.3-96.2,426.1,8.2
		c29.8,22.1,64.2,38.4,97.5,55.5c54.2,27.9,109.5,24.5,156.1-12.5c156.4-124.3,311.7-105,468.5-3c11.5,7.5,24.1,13.4,36.2,20
		C6757.7,6491.2,6710.1,6518.4,6662.5,6545.7z"/>
	<path class="st7" d="M3138.7,6416.8c8,4.5,15.9,8.9,23.9,13.4C3154.6,6425.8,3146.7,6421.3,3138.7,6416.8z"/>
	<path class="st5" d="M2043.7,7193.4c-6.8-5.3-13.6-10.6-20.4-15.9c4.2-3.6,8.3-7.2,12.5-10.8c5.5,5.7,11.1,11.4,16.6,17
		C2049.5,7187,2046.6,7190.2,2043.7,7193.4z"/>
	<path class="st5" d="M2052.4,7183.8c3.1,3.6,6.1,7.1,9.2,10.7c-5.9-0.4-11.9-0.8-17.9-1.1C2046.6,7190.2,2049.5,7187,2052.4,7183.8
		z"/>
	<path class="st5" d="M1153.3,6161.7c1.2,4.6,2.5,9.2,3.7,13.8c-3.2-2.5-6.4-5.1-9.7-7.6C1149.2,6165.7,1151.2,6163.7,1153.3,6161.7
		z"/>
	<path class="st5" d="M3058.9,7683.5c2,2,4,4.1,6,6.1c-3.7-0.4-7.4-0.9-11.1-1.3C3055.5,7686.7,3057.2,7685.1,3058.9,7683.5z"/>
	<path class="st5" d="M966,2509.3c-4.4,9.1-8.8,18.2-13.2,27.3c-2.6-1-5.3-2-7.9-2.9c3.4-11.4,6.8-22.8,10.2-34.2
		C958.7,2502.7,962.3,2506,966,2509.3z"/>
</g>
</svg>
